%TF.GenerationSoftware,KiCad,Pcbnew,7.0.9-7.0.9~ubuntu20.04.1*%
%TF.CreationDate,2023-12-29T19:30:30+01:00*%
%TF.ProjectId,charliewatch-v2.panel,63686172-6c69-4657-9761-7463682d7632,rev?*%
%TF.SameCoordinates,Original*%
%TF.FileFunction,Soldermask,Top*%
%TF.FilePolarity,Negative*%
%FSLAX46Y46*%
G04 Gerber Fmt 4.6, Leading zero omitted, Abs format (unit mm)*
G04 Created by KiCad (PCBNEW 7.0.9-7.0.9~ubuntu20.04.1) date 2023-12-29 19:30:30*
%MOMM*%
%LPD*%
G01*
G04 APERTURE LIST*
G04 Aperture macros list*
%AMRoundRect*
0 Rectangle with rounded corners*
0 $1 Rounding radius*
0 $2 $3 $4 $5 $6 $7 $8 $9 X,Y pos of 4 corners*
0 Add a 4 corners polygon primitive as box body*
4,1,4,$2,$3,$4,$5,$6,$7,$8,$9,$2,$3,0*
0 Add four circle primitives for the rounded corners*
1,1,$1+$1,$2,$3*
1,1,$1+$1,$4,$5*
1,1,$1+$1,$6,$7*
1,1,$1+$1,$8,$9*
0 Add four rect primitives between the rounded corners*
20,1,$1+$1,$2,$3,$4,$5,0*
20,1,$1+$1,$4,$5,$6,$7,0*
20,1,$1+$1,$6,$7,$8,$9,0*
20,1,$1+$1,$8,$9,$2,$3,0*%
%AMRotRect*
0 Rectangle, with rotation*
0 The origin of the aperture is its center*
0 $1 length*
0 $2 width*
0 $3 Rotation angle, in degrees counterclockwise*
0 Add horizontal line*
21,1,$1,$2,0,0,$3*%
G04 Aperture macros list end*
%ADD10RotRect,0.500000X0.400000X240.000000*%
%ADD11RotRect,0.500000X0.400000X162.000000*%
%ADD12RotRect,0.500000X0.400000X216.000000*%
%ADD13RotRect,0.500000X0.400000X138.000000*%
%ADD14C,0.300000*%
%ADD15RotRect,0.500000X0.400000X348.000000*%
%ADD16RotRect,0.500000X0.400000X114.000000*%
%ADD17RotRect,0.500000X0.400000X72.000000*%
%ADD18RotRect,0.500000X0.400000X78.000000*%
%ADD19C,1.500000*%
%ADD20RotRect,0.500000X0.400000X108.000000*%
%ADD21RotRect,0.500000X0.400000X120.000000*%
%ADD22C,1.000000*%
%ADD23R,0.600000X1.200000*%
%ADD24RotRect,0.500000X0.400000X330.000000*%
%ADD25RoundRect,0.243750X0.456250X-0.243750X0.456250X0.243750X-0.456250X0.243750X-0.456250X-0.243750X0*%
%ADD26RoundRect,0.243750X-0.516999X-0.017031X-0.273249X-0.439219X0.516999X0.017031X0.273249X0.439219X0*%
%ADD27RoundRect,0.243750X-0.456250X0.243750X-0.456250X-0.243750X0.456250X-0.243750X0.456250X0.243750X0*%
%ADD28RotRect,0.500000X0.400000X312.000000*%
%ADD29RotRect,0.500000X0.400000X276.000000*%
%ADD30RotRect,0.500000X0.400000X66.000000*%
%ADD31RotRect,0.500000X0.400000X54.000000*%
%ADD32RotRect,0.500000X0.400000X96.000000*%
%ADD33RotRect,0.500000X0.400000X204.000000*%
%ADD34RotRect,0.500000X0.400000X264.000000*%
%ADD35RoundRect,0.243750X-0.243750X-0.456250X0.243750X-0.456250X0.243750X0.456250X-0.243750X0.456250X0*%
%ADD36RoundRect,0.243750X-0.273249X0.439219X-0.516999X0.017031X0.273249X-0.439219X0.516999X-0.017031X0*%
%ADD37RoundRect,0.243750X0.516999X0.017031X0.273249X0.439219X-0.516999X-0.017031X-0.273249X-0.439219X0*%
%ADD38RotRect,0.500000X0.400000X102.000000*%
%ADD39RoundRect,0.243750X0.273249X-0.439219X0.516999X-0.017031X-0.273249X0.439219X-0.516999X0.017031X0*%
%ADD40RotRect,0.500000X0.400000X48.000000*%
%ADD41RoundRect,0.062500X-0.375000X-0.062500X0.375000X-0.062500X0.375000X0.062500X-0.375000X0.062500X0*%
%ADD42RoundRect,0.062500X-0.062500X-0.375000X0.062500X-0.375000X0.062500X0.375000X-0.062500X0.375000X0*%
%ADD43R,3.450000X3.450000*%
%ADD44RotRect,0.500000X0.400000X192.000000*%
%ADD45R,0.400000X0.500000*%
%ADD46RotRect,0.500000X0.400000X12.000000*%
%ADD47RotRect,0.500000X0.400000X234.000000*%
%ADD48RotRect,0.500000X0.400000X42.000000*%
%ADD49RotRect,0.500000X0.400000X294.000000*%
%ADD50RoundRect,0.243750X0.017031X-0.516999X0.439219X-0.273249X-0.017031X0.516999X-0.439219X0.273249X0*%
%ADD51RotRect,0.500000X0.400000X24.000000*%
%ADD52RotRect,0.500000X0.400000X144.000000*%
%ADD53RotRect,0.500000X0.400000X168.000000*%
%ADD54RotRect,0.500000X0.400000X6.000000*%
%ADD55RotRect,0.500000X0.400000X258.000000*%
%ADD56R,0.500000X0.400000*%
%ADD57RotRect,0.500000X0.400000X150.000000*%
%ADD58RotRect,0.500000X0.400000X228.000000*%
%ADD59RotRect,0.500000X0.400000X36.000000*%
%ADD60RotRect,0.500000X0.400000X306.000000*%
%ADD61RotRect,0.500000X0.400000X30.000000*%
%ADD62RotRect,0.500000X0.400000X246.000000*%
%ADD63RotRect,0.500000X0.400000X18.000000*%
%ADD64RoundRect,0.243750X-0.439219X-0.273249X-0.017031X-0.516999X0.439219X0.273249X0.017031X0.516999X0*%
%ADD65RoundRect,0.243750X0.243750X0.456250X-0.243750X0.456250X-0.243750X-0.456250X0.243750X-0.456250X0*%
%ADD66RotRect,0.500000X0.400000X174.000000*%
%ADD67RotRect,0.500000X0.400000X342.000000*%
%ADD68RotRect,0.500000X0.400000X282.000000*%
%ADD69RotRect,0.500000X0.400000X186.000000*%
%ADD70RotRect,0.500000X0.400000X354.000000*%
%ADD71RotRect,0.500000X0.400000X156.000000*%
%ADD72RoundRect,0.243750X0.439219X0.273249X0.017031X0.516999X-0.439219X-0.273249X-0.017031X-0.516999X0*%
%ADD73RotRect,0.500000X0.400000X252.000000*%
%ADD74RotRect,0.500000X0.400000X288.000000*%
%ADD75RotRect,0.500000X0.400000X84.000000*%
%ADD76RotRect,0.500000X0.400000X198.000000*%
%ADD77RotRect,0.500000X0.400000X132.000000*%
%ADD78RotRect,0.500000X0.400000X336.000000*%
%ADD79RotRect,0.500000X0.400000X210.000000*%
%ADD80RotRect,0.500000X0.400000X324.000000*%
%ADD81RotRect,0.500000X0.400000X60.000000*%
%ADD82RotRect,0.500000X0.400000X318.000000*%
%ADD83RotRect,0.500000X0.400000X126.000000*%
%ADD84RotRect,1.000000X1.000000X45.000000*%
%ADD85RoundRect,0.243750X-0.017031X0.516999X-0.439219X0.273249X0.017031X-0.516999X0.439219X-0.273249X0*%
%ADD86RotRect,0.500000X0.400000X222.000000*%
%ADD87RotRect,0.500000X0.400000X300.000000*%
G04 APERTURE END LIST*
D10*
%TO.C,D36*%
X154769604Y-27385471D03*
X155369604Y-26346241D03*
X155375822Y-27735471D03*
X155975822Y-26696241D03*
%TD*%
D11*
%TO.C,D49*%
X161112235Y-42679576D03*
X162253503Y-43050396D03*
X160895923Y-43345316D03*
X162037191Y-43716136D03*
%TD*%
D12*
%TO.C,D40*%
X158930578Y-30936371D03*
X159901398Y-30231029D03*
X159342028Y-31502683D03*
X160312848Y-30797341D03*
%TD*%
D13*
%TO.C,D53*%
X158504022Y-47488277D03*
X159395796Y-48291234D03*
X158035630Y-48008478D03*
X158927404Y-48811435D03*
%TD*%
D14*
%TO.C,KiKit_MB_3_15*%
X147494485Y-23783376D03*
%TD*%
D15*
%TO.C,D18*%
X135561832Y-36556955D03*
X134388055Y-36307461D03*
X135707371Y-35872251D03*
X134533594Y-35622757D03*
%TD*%
D16*
%TO.C,D57*%
X154166412Y-50819371D03*
X154654496Y-51915625D03*
X153526930Y-51104087D03*
X154015014Y-52200341D03*
%TD*%
D17*
%TO.C,D4*%
X144766993Y-51563378D03*
X144396173Y-52704646D03*
X144101253Y-51347066D03*
X143730433Y-52488334D03*
%TD*%
D18*
%TO.C,D3*%
X146105812Y-51884737D03*
X145856318Y-53058514D03*
X145421108Y-51739198D03*
X145171614Y-52912975D03*
%TD*%
D19*
%TO.C,KiKit_TO_1*%
X132052287Y-22500000D03*
%TD*%
D20*
%TO.C,D58*%
X152894173Y-51347066D03*
X153264993Y-52488334D03*
X152228433Y-51563378D03*
X152599253Y-52704646D03*
%TD*%
D14*
%TO.C,KiKit_MB_4_13*%
X148496960Y-54145380D03*
%TD*%
D21*
%TO.C,D56*%
X155375822Y-50162241D03*
X155975822Y-51201471D03*
X154769604Y-50512241D03*
X155369604Y-51551471D03*
%TD*%
D22*
%TO.C,TST1*%
X156876713Y-30569856D03*
%TD*%
D19*
%TO.C,KiKit_TO_3*%
X132052287Y-55397712D03*
%TD*%
D14*
%TO.C,KiKit_MB_4_14*%
X148998534Y-54138972D03*
%TD*%
D23*
%TO.C,Y1*%
X149707713Y-35148856D03*
X150907713Y-35148856D03*
%TD*%
D24*
%TO.C,D21*%
X136934328Y-32676965D03*
X135895098Y-32076965D03*
X137284328Y-32070747D03*
X136245098Y-31470747D03*
%TD*%
D25*
%TO.C,HD4*%
X160147713Y-39886356D03*
X160147713Y-38011356D03*
%TD*%
D26*
%TO.C,HD11*%
X137939963Y-43961957D03*
X138877463Y-45585755D03*
%TD*%
D14*
%TO.C,KiKit_MB_2_11*%
X163660556Y-39951194D03*
%TD*%
D27*
%TO.C,HD10*%
X136847713Y-38011356D03*
X136847713Y-39886356D03*
%TD*%
D14*
%TO.C,KiKit_MB_1_11*%
X133333257Y-37947426D03*
%TD*%
D28*
%TO.C,D24*%
X139438091Y-29410939D03*
X138635134Y-28519165D03*
X139958292Y-28942547D03*
X139155335Y-28050773D03*
%TD*%
D29*
%TO.C,D30*%
X146775347Y-25907154D03*
X146649913Y-24713728D03*
X147471513Y-25833984D03*
X147346079Y-24640558D03*
%TD*%
D22*
%TO.C,KiKit_FID_T_2*%
X162447713Y-22500000D03*
%TD*%
D30*
%TO.C,D5*%
X143468496Y-51104087D03*
X142980412Y-52200341D03*
X142829014Y-50819371D03*
X142340930Y-51915625D03*
%TD*%
D31*
%TO.C,D7*%
X141051540Y-49793171D03*
X140346198Y-50763991D03*
X140485228Y-49381721D03*
X139779886Y-50352541D03*
%TD*%
D32*
%TO.C,D60*%
X150220079Y-51990558D03*
X150345513Y-53183984D03*
X149523913Y-52063728D03*
X149649347Y-53257154D03*
%TD*%
D33*
%TO.C,D42*%
X160368228Y-33280157D03*
X161464482Y-32792073D03*
X160652944Y-33919639D03*
X161749198Y-33431555D03*
%TD*%
D34*
%TO.C,D32*%
X149523913Y-25833984D03*
X149649347Y-24640558D03*
X150220079Y-25907154D03*
X150345513Y-24713728D03*
%TD*%
D14*
%TO.C,KiKit_MB_3_13*%
X148496960Y-23752332D03*
%TD*%
D35*
%TO.C,HD1*%
X147560213Y-50598856D03*
X149435213Y-50598856D03*
%TD*%
D14*
%TO.C,KiKit_MB_1_12*%
X133308476Y-38447907D03*
%TD*%
%TO.C,KiKit_MB_4_11*%
X147494485Y-54114336D03*
%TD*%
D36*
%TO.C,HD9*%
X138877463Y-32311957D03*
X137939963Y-33935755D03*
%TD*%
D37*
%TO.C,HD5*%
X159055463Y-33935755D03*
X158117963Y-32311957D03*
%TD*%
D14*
%TO.C,KiKit_MB_2_14*%
X163685076Y-38447390D03*
%TD*%
D38*
%TO.C,D59*%
X151574318Y-51739198D03*
X151823812Y-52912975D03*
X150889614Y-51884737D03*
X151139108Y-53058514D03*
%TD*%
D14*
%TO.C,KiKit_MB_2_15*%
X163660556Y-37946518D03*
%TD*%
D39*
%TO.C,HD3*%
X158117963Y-45585755D03*
X159055463Y-43961957D03*
%TD*%
D40*
%TO.C,D8*%
X139958292Y-48955165D03*
X139155335Y-49846939D03*
X139438091Y-48486773D03*
X138635134Y-49378547D03*
%TD*%
D22*
%TO.C,RST1*%
X151564713Y-27501856D03*
%TD*%
D41*
%TO.C,U2*%
X146060213Y-37348856D03*
X146060213Y-37848856D03*
X146060213Y-38348856D03*
X146060213Y-38848856D03*
X146060213Y-39348856D03*
X146060213Y-39848856D03*
X146060213Y-40348856D03*
X146060213Y-40848856D03*
D42*
X146747713Y-41536356D03*
X147247713Y-41536356D03*
X147747713Y-41536356D03*
X148247713Y-41536356D03*
X148747713Y-41536356D03*
X149247713Y-41536356D03*
X149747713Y-41536356D03*
X150247713Y-41536356D03*
D41*
X150935213Y-40848856D03*
X150935213Y-40348856D03*
X150935213Y-39848856D03*
X150935213Y-39348856D03*
X150935213Y-38848856D03*
X150935213Y-38348856D03*
X150935213Y-37848856D03*
X150935213Y-37348856D03*
D42*
X150247713Y-36661356D03*
X149747713Y-36661356D03*
X149247713Y-36661356D03*
X148747713Y-36661356D03*
X148247713Y-36661356D03*
X147747713Y-36661356D03*
X147247713Y-36661356D03*
X146747713Y-36661356D03*
D43*
X148497713Y-39098856D03*
%TD*%
D19*
%TO.C,KiKit_TO_2*%
X164947713Y-22500000D03*
%TD*%
D44*
%TO.C,D44*%
X161288055Y-35872251D03*
X162461832Y-35622757D03*
X161433594Y-36556955D03*
X162607371Y-36307461D03*
%TD*%
D22*
%TO.C,VCC1*%
X145430713Y-27502856D03*
%TD*%
D45*
%TO.C,D1*%
X148847713Y-52098856D03*
X148847713Y-53298856D03*
X148147713Y-52098856D03*
X148147713Y-53298856D03*
%TD*%
D46*
%TO.C,D14*%
X135707371Y-42025461D03*
X134533594Y-42274955D03*
X135561832Y-41340757D03*
X134388055Y-41590251D03*
%TD*%
D14*
%TO.C,KiKit_MB_3_11*%
X149499318Y-23786347D03*
%TD*%
D47*
%TO.C,D37*%
X155943886Y-28104541D03*
X156649228Y-27133721D03*
X156510198Y-28515991D03*
X157215540Y-27545171D03*
%TD*%
D48*
%TO.C,D9*%
X138959796Y-48008478D03*
X138068022Y-48811435D03*
X138491404Y-47488277D03*
X137599630Y-48291234D03*
%TD*%
D49*
%TO.C,D27*%
X142829014Y-27078341D03*
X142340930Y-25982087D03*
X143468496Y-26793625D03*
X142980412Y-25697371D03*
%TD*%
D50*
%TO.C,HD2*%
X153510814Y-49506606D03*
X155134612Y-48569106D03*
%TD*%
D51*
%TO.C,D12*%
X136627198Y-44617555D03*
X135530944Y-45105639D03*
X136342482Y-43978073D03*
X135246228Y-44466157D03*
%TD*%
D52*
%TO.C,D52*%
X159342028Y-46395029D03*
X160312848Y-47100371D03*
X158930578Y-46961341D03*
X159901398Y-47666683D03*
%TD*%
D53*
%TO.C,D48*%
X161433594Y-41340757D03*
X162607371Y-41590251D03*
X161288055Y-42025461D03*
X162461832Y-42274955D03*
%TD*%
D54*
%TO.C,D15*%
X135456011Y-40671222D03*
X134262585Y-40796656D03*
X135382841Y-39975056D03*
X134189415Y-40100490D03*
%TD*%
D55*
%TO.C,D33*%
X150889614Y-26012975D03*
X151139108Y-24839198D03*
X151574318Y-26158514D03*
X151823812Y-24984737D03*
%TD*%
D56*
%TO.C,D16*%
X135347713Y-39298856D03*
X134147713Y-39298856D03*
X135347713Y-38598856D03*
X134147713Y-38598856D03*
%TD*%
D22*
%TO.C,KiKit_FID_T_3*%
X134552287Y-55397712D03*
%TD*%
D57*
%TO.C,D51*%
X160061098Y-45220747D03*
X161100328Y-45820747D03*
X159711098Y-45826965D03*
X160750328Y-46426965D03*
%TD*%
D58*
%TO.C,D38*%
X157037134Y-28942547D03*
X157840091Y-28050773D03*
X157557335Y-29410939D03*
X158360292Y-28519165D03*
%TD*%
D59*
%TO.C,D10*%
X138064848Y-46961341D03*
X137094028Y-47666683D03*
X137653398Y-46395029D03*
X136682578Y-47100371D03*
%TD*%
D60*
%TO.C,D25*%
X140485228Y-28515991D03*
X139779886Y-27545171D03*
X141051540Y-28104541D03*
X140346198Y-27133721D03*
%TD*%
D61*
%TO.C,D11*%
X137284328Y-45826965D03*
X136245098Y-46426965D03*
X136934328Y-45220747D03*
X135895098Y-45820747D03*
%TD*%
D14*
%TO.C,KiKit_MB_1_13*%
X133302438Y-38948856D03*
%TD*%
D62*
%TO.C,D35*%
X153526930Y-26793625D03*
X154015014Y-25697371D03*
X154166412Y-27078341D03*
X154654496Y-25982087D03*
%TD*%
D14*
%TO.C,KiKit_MB_4_12*%
X147995579Y-54135802D03*
%TD*%
D63*
%TO.C,D13*%
X136099503Y-43345316D03*
X134958235Y-43716136D03*
X135883191Y-42679576D03*
X134741923Y-43050396D03*
%TD*%
D64*
%TO.C,HD12*%
X141860814Y-48569106D03*
X143484612Y-49506606D03*
%TD*%
D65*
%TO.C,HD7*%
X149435213Y-27298856D03*
X147560213Y-27298856D03*
%TD*%
D66*
%TO.C,D47*%
X161612585Y-39975056D03*
X162806011Y-40100490D03*
X161539415Y-40671222D03*
X162732841Y-40796656D03*
%TD*%
D45*
%TO.C,D31*%
X148147713Y-25798856D03*
X148147713Y-24598856D03*
X148847713Y-25798856D03*
X148847713Y-24598856D03*
%TD*%
D67*
%TO.C,D19*%
X135883191Y-35218136D03*
X134741923Y-34847316D03*
X136099503Y-34552396D03*
X134958235Y-34181576D03*
%TD*%
D68*
%TO.C,D29*%
X145421108Y-26158514D03*
X145171614Y-24984737D03*
X146105812Y-26012975D03*
X145856318Y-24839198D03*
%TD*%
D14*
%TO.C,KiKit_MB_2_13*%
X163697483Y-38948859D03*
%TD*%
D22*
%TO.C,KiKit_FID_T_1*%
X134552287Y-22500000D03*
%TD*%
D69*
%TO.C,D45*%
X161539415Y-37226490D03*
X162732841Y-37101056D03*
X161612585Y-37922656D03*
X162806011Y-37797222D03*
%TD*%
D70*
%TO.C,D17*%
X135382841Y-37922656D03*
X134189415Y-37797222D03*
X135456011Y-37226490D03*
X134262585Y-37101056D03*
%TD*%
D56*
%TO.C,D46*%
X161647713Y-38598856D03*
X162847713Y-38598856D03*
X161647713Y-39298856D03*
X162847713Y-39298856D03*
%TD*%
D14*
%TO.C,KiKit_MB_1_14*%
X133308774Y-39449790D03*
%TD*%
D71*
%TO.C,D50*%
X160652944Y-43978073D03*
X161749198Y-44466157D03*
X160368228Y-44617555D03*
X161464482Y-45105639D03*
%TD*%
D72*
%TO.C,HD6*%
X155134612Y-29328606D03*
X153510814Y-28391106D03*
%TD*%
D73*
%TO.C,D34*%
X152228433Y-26334334D03*
X152599253Y-25193066D03*
X152894173Y-26550646D03*
X153264993Y-25409378D03*
%TD*%
D74*
%TO.C,D28*%
X144101253Y-26550646D03*
X143730433Y-25409378D03*
X144766993Y-26334334D03*
X144396173Y-25193066D03*
%TD*%
D75*
%TO.C,D2*%
X147471513Y-52063728D03*
X147346079Y-53257154D03*
X146775347Y-51990558D03*
X146649913Y-53183984D03*
%TD*%
D76*
%TO.C,D43*%
X160895923Y-34552396D03*
X162037191Y-34181576D03*
X161112235Y-35218136D03*
X162253503Y-34847316D03*
%TD*%
D77*
%TO.C,D54*%
X157557335Y-48486773D03*
X158360292Y-49378547D03*
X157037134Y-48955165D03*
X157840091Y-49846939D03*
%TD*%
D78*
%TO.C,D20*%
X136342482Y-33919639D03*
X135246228Y-33431555D03*
X136627198Y-33280157D03*
X135530944Y-32792073D03*
%TD*%
D79*
%TO.C,D41*%
X159711098Y-32070747D03*
X160750328Y-31470747D03*
X160061098Y-32676965D03*
X161100328Y-32076965D03*
%TD*%
D14*
%TO.C,KiKit_MB_3_14*%
X147995579Y-23761910D03*
%TD*%
%TO.C,KiKit_MB_2_12*%
X163685180Y-39450325D03*
%TD*%
D80*
%TO.C,D22*%
X137653398Y-31502683D03*
X136682578Y-30797341D03*
X138064848Y-30936371D03*
X137094028Y-30231029D03*
%TD*%
D14*
%TO.C,KiKit_MB_4_15*%
X149499318Y-54111365D03*
%TD*%
%TO.C,KiKit_MB_3_12*%
X148998534Y-23758740D03*
%TD*%
D81*
%TO.C,D6*%
X142225822Y-50512241D03*
X141625822Y-51551471D03*
X141619604Y-50162241D03*
X141019604Y-51201471D03*
%TD*%
D82*
%TO.C,D23*%
X138491404Y-30409435D03*
X137599630Y-29606478D03*
X138959796Y-29889234D03*
X138068022Y-29086277D03*
%TD*%
D83*
%TO.C,D55*%
X156510198Y-49381721D03*
X157215540Y-50352541D03*
X155943886Y-49793171D03*
X156649228Y-50763991D03*
%TD*%
D84*
%TO.C,GND1*%
X140118713Y-30569856D03*
%TD*%
D14*
%TO.C,KiKit_MB_1_15*%
X133333528Y-39950273D03*
%TD*%
D85*
%TO.C,HD8*%
X143484612Y-28391106D03*
X141860814Y-29328606D03*
%TD*%
D86*
%TO.C,D39*%
X158035630Y-29889234D03*
X158927404Y-29086277D03*
X158504022Y-30409435D03*
X159395796Y-29606478D03*
%TD*%
D87*
%TO.C,D26*%
X141619604Y-27735471D03*
X141019604Y-26696241D03*
X142225822Y-27385471D03*
X141625822Y-26346241D03*
%TD*%
M02*
