%TF.GenerationSoftware,KiCad,Pcbnew,7.0.9-7.0.9~ubuntu20.04.1*%
%TF.CreationDate,2023-12-29T19:30:30+01:00*%
%TF.ProjectId,charliewatch-v2.panel,63686172-6c69-4657-9761-7463682d7632,rev?*%
%TF.SameCoordinates,Original*%
%TF.FileFunction,Legend,Top*%
%TF.FilePolarity,Positive*%
%FSLAX46Y46*%
G04 Gerber Fmt 4.6, Leading zero omitted, Abs format (unit mm)*
G04 Created by KiCad (PCBNEW 7.0.9-7.0.9~ubuntu20.04.1) date 2023-12-29 19:30:30*
%MOMM*%
%LPD*%
G01*
G04 APERTURE LIST*
%ADD10C,0.300000*%
%ADD11C,0.127000*%
%ADD12C,0.200000*%
%ADD13C,0.120000*%
G04 APERTURE END LIST*
D10*
X139500001Y-23106900D02*
X139357143Y-23178328D01*
X139357143Y-23178328D02*
X139071429Y-23178328D01*
X139071429Y-23178328D02*
X138928572Y-23106900D01*
X138928572Y-23106900D02*
X138857143Y-23035471D01*
X138857143Y-23035471D02*
X138785715Y-22892614D01*
X138785715Y-22892614D02*
X138785715Y-22464042D01*
X138785715Y-22464042D02*
X138857143Y-22321185D01*
X138857143Y-22321185D02*
X138928572Y-22249757D01*
X138928572Y-22249757D02*
X139071429Y-22178328D01*
X139071429Y-22178328D02*
X139357143Y-22178328D01*
X139357143Y-22178328D02*
X139500001Y-22249757D01*
X140142857Y-23178328D02*
X140142857Y-21678328D01*
X140785715Y-23178328D02*
X140785715Y-22392614D01*
X140785715Y-22392614D02*
X140714286Y-22249757D01*
X140714286Y-22249757D02*
X140571429Y-22178328D01*
X140571429Y-22178328D02*
X140357143Y-22178328D01*
X140357143Y-22178328D02*
X140214286Y-22249757D01*
X140214286Y-22249757D02*
X140142857Y-22321185D01*
X142142858Y-23178328D02*
X142142858Y-22392614D01*
X142142858Y-22392614D02*
X142071429Y-22249757D01*
X142071429Y-22249757D02*
X141928572Y-22178328D01*
X141928572Y-22178328D02*
X141642858Y-22178328D01*
X141642858Y-22178328D02*
X141500000Y-22249757D01*
X142142858Y-23106900D02*
X142000000Y-23178328D01*
X142000000Y-23178328D02*
X141642858Y-23178328D01*
X141642858Y-23178328D02*
X141500000Y-23106900D01*
X141500000Y-23106900D02*
X141428572Y-22964042D01*
X141428572Y-22964042D02*
X141428572Y-22821185D01*
X141428572Y-22821185D02*
X141500000Y-22678328D01*
X141500000Y-22678328D02*
X141642858Y-22606900D01*
X141642858Y-22606900D02*
X142000000Y-22606900D01*
X142000000Y-22606900D02*
X142142858Y-22535471D01*
X142857143Y-23178328D02*
X142857143Y-22178328D01*
X142857143Y-22464042D02*
X142928572Y-22321185D01*
X142928572Y-22321185D02*
X143000001Y-22249757D01*
X143000001Y-22249757D02*
X143142858Y-22178328D01*
X143142858Y-22178328D02*
X143285715Y-22178328D01*
X144000000Y-23178328D02*
X143857143Y-23106900D01*
X143857143Y-23106900D02*
X143785714Y-22964042D01*
X143785714Y-22964042D02*
X143785714Y-21678328D01*
X144571428Y-23178328D02*
X144571428Y-22178328D01*
X144571428Y-21678328D02*
X144500000Y-21749757D01*
X144500000Y-21749757D02*
X144571428Y-21821185D01*
X144571428Y-21821185D02*
X144642857Y-21749757D01*
X144642857Y-21749757D02*
X144571428Y-21678328D01*
X144571428Y-21678328D02*
X144571428Y-21821185D01*
X145857143Y-23106900D02*
X145714286Y-23178328D01*
X145714286Y-23178328D02*
X145428572Y-23178328D01*
X145428572Y-23178328D02*
X145285714Y-23106900D01*
X145285714Y-23106900D02*
X145214286Y-22964042D01*
X145214286Y-22964042D02*
X145214286Y-22392614D01*
X145214286Y-22392614D02*
X145285714Y-22249757D01*
X145285714Y-22249757D02*
X145428572Y-22178328D01*
X145428572Y-22178328D02*
X145714286Y-22178328D01*
X145714286Y-22178328D02*
X145857143Y-22249757D01*
X145857143Y-22249757D02*
X145928572Y-22392614D01*
X145928572Y-22392614D02*
X145928572Y-22535471D01*
X145928572Y-22535471D02*
X145214286Y-22678328D01*
X146428571Y-22178328D02*
X146714286Y-23178328D01*
X146714286Y-23178328D02*
X147000000Y-22464042D01*
X147000000Y-22464042D02*
X147285714Y-23178328D01*
X147285714Y-23178328D02*
X147571428Y-22178328D01*
X148785715Y-23178328D02*
X148785715Y-22392614D01*
X148785715Y-22392614D02*
X148714286Y-22249757D01*
X148714286Y-22249757D02*
X148571429Y-22178328D01*
X148571429Y-22178328D02*
X148285715Y-22178328D01*
X148285715Y-22178328D02*
X148142857Y-22249757D01*
X148785715Y-23106900D02*
X148642857Y-23178328D01*
X148642857Y-23178328D02*
X148285715Y-23178328D01*
X148285715Y-23178328D02*
X148142857Y-23106900D01*
X148142857Y-23106900D02*
X148071429Y-22964042D01*
X148071429Y-22964042D02*
X148071429Y-22821185D01*
X148071429Y-22821185D02*
X148142857Y-22678328D01*
X148142857Y-22678328D02*
X148285715Y-22606900D01*
X148285715Y-22606900D02*
X148642857Y-22606900D01*
X148642857Y-22606900D02*
X148785715Y-22535471D01*
X149285715Y-22178328D02*
X149857143Y-22178328D01*
X149500000Y-21678328D02*
X149500000Y-22964042D01*
X149500000Y-22964042D02*
X149571429Y-23106900D01*
X149571429Y-23106900D02*
X149714286Y-23178328D01*
X149714286Y-23178328D02*
X149857143Y-23178328D01*
X151000001Y-23106900D02*
X150857143Y-23178328D01*
X150857143Y-23178328D02*
X150571429Y-23178328D01*
X150571429Y-23178328D02*
X150428572Y-23106900D01*
X150428572Y-23106900D02*
X150357143Y-23035471D01*
X150357143Y-23035471D02*
X150285715Y-22892614D01*
X150285715Y-22892614D02*
X150285715Y-22464042D01*
X150285715Y-22464042D02*
X150357143Y-22321185D01*
X150357143Y-22321185D02*
X150428572Y-22249757D01*
X150428572Y-22249757D02*
X150571429Y-22178328D01*
X150571429Y-22178328D02*
X150857143Y-22178328D01*
X150857143Y-22178328D02*
X151000001Y-22249757D01*
X151642857Y-23178328D02*
X151642857Y-21678328D01*
X152285715Y-23178328D02*
X152285715Y-22392614D01*
X152285715Y-22392614D02*
X152214286Y-22249757D01*
X152214286Y-22249757D02*
X152071429Y-22178328D01*
X152071429Y-22178328D02*
X151857143Y-22178328D01*
X151857143Y-22178328D02*
X151714286Y-22249757D01*
X151714286Y-22249757D02*
X151642857Y-22321185D01*
X154000000Y-22178328D02*
X154357143Y-23178328D01*
X154357143Y-23178328D02*
X154714286Y-22178328D01*
X155214286Y-21821185D02*
X155285714Y-21749757D01*
X155285714Y-21749757D02*
X155428572Y-21678328D01*
X155428572Y-21678328D02*
X155785714Y-21678328D01*
X155785714Y-21678328D02*
X155928572Y-21749757D01*
X155928572Y-21749757D02*
X156000000Y-21821185D01*
X156000000Y-21821185D02*
X156071429Y-21964042D01*
X156071429Y-21964042D02*
X156071429Y-22106900D01*
X156071429Y-22106900D02*
X156000000Y-22321185D01*
X156000000Y-22321185D02*
X155142857Y-23178328D01*
X155142857Y-23178328D02*
X156071429Y-23178328D01*
X156714285Y-23035471D02*
X156785714Y-23106900D01*
X156785714Y-23106900D02*
X156714285Y-23178328D01*
X156714285Y-23178328D02*
X156642857Y-23106900D01*
X156642857Y-23106900D02*
X156714285Y-23035471D01*
X156714285Y-23035471D02*
X156714285Y-23178328D01*
X158214286Y-23178328D02*
X157357143Y-23178328D01*
X157785714Y-23178328D02*
X157785714Y-21678328D01*
X157785714Y-21678328D02*
X157642857Y-21892614D01*
X157642857Y-21892614D02*
X157500000Y-22035471D01*
X157500000Y-22035471D02*
X157357143Y-22106900D01*
D11*
%TO.C,D36*%
X154976303Y-26927459D02*
X155076303Y-26754253D01*
X155669123Y-27327459D02*
X155769123Y-27154253D01*
D12*
X154446303Y-27880086D02*
G75*
G03*
X154446303Y-27880086I-20000J0D01*
G01*
D11*
%TO.C,D49*%
X161603214Y-42786532D02*
X161793425Y-42848335D01*
X161356001Y-43547377D02*
X161546212Y-43609180D01*
D12*
X160577052Y-42446613D02*
G75*
G03*
X160577052Y-42446613I-20000J0D01*
G01*
D11*
%TO.C,D40*%
X159305697Y-30602028D02*
X159467501Y-30484471D01*
X159775925Y-31249241D02*
X159937729Y-31131684D01*
D12*
X158435779Y-31248592D02*
G75*
G03*
X158435779Y-31248592I-20000J0D01*
G01*
D11*
%TO.C,D53*%
X158909051Y-47785685D02*
X159057680Y-47919511D01*
X158373746Y-48380201D02*
X158522375Y-48514027D01*
D12*
X158111591Y-47049641D02*
G75*
G03*
X158111591Y-47049641I-20000J0D01*
G01*
D11*
%TO.C,D18*%
X135062363Y-36501906D02*
X134866734Y-36460324D01*
X135228692Y-35719388D02*
X135033063Y-35677806D01*
D12*
X136158325Y-36730609D02*
G75*
G03*
X136158325Y-36730609I-20000J0D01*
G01*
D11*
%TO.C,D57*%
X154415458Y-51255807D02*
X154496805Y-51438516D01*
X153684621Y-51581196D02*
X153765968Y-51763905D01*
D12*
X153988047Y-50250907D02*
G75*
G03*
X153988047Y-50250907I-20000J0D01*
G01*
D11*
%TO.C,D4*%
X144660037Y-52054357D02*
X144598234Y-52244568D01*
X143899192Y-51807144D02*
X143837389Y-51997355D01*
D12*
X145019956Y-51008195D02*
G75*
G03*
X145019956Y-51008195I-20000J0D01*
G01*
D11*
%TO.C,D3*%
X146050763Y-52384206D02*
X146009181Y-52579835D01*
X145268245Y-52217877D02*
X145226663Y-52413506D01*
D12*
X146299466Y-51308244D02*
G75*
G03*
X146299466Y-51308244I-20000J0D01*
G01*
D11*
%TO.C,D58*%
X153096234Y-51807144D02*
X153158037Y-51997355D01*
X152335389Y-52054357D02*
X152397192Y-52244568D01*
D12*
X152776316Y-50760981D02*
G75*
G03*
X152776316Y-50760981I-20001J0D01*
G01*
D11*
%TO.C,D56*%
X155669123Y-50570253D02*
X155769123Y-50743459D01*
X154976303Y-50970253D02*
X155076303Y-51143459D01*
D12*
X155139123Y-49617626D02*
G75*
G03*
X155139123Y-49617626I-20000J0D01*
G01*
D13*
%TO.C,Y1*%
X149207713Y-34548856D02*
X149207713Y-35748856D01*
X150207713Y-34448856D02*
X150407713Y-34448856D01*
X150207713Y-35848856D02*
X150407713Y-35848856D01*
D11*
%TO.C,D21*%
X136476316Y-32470266D02*
X136303110Y-32370266D01*
X136876316Y-31777446D02*
X136703110Y-31677446D01*
D12*
X137448943Y-33020266D02*
G75*
G03*
X137448943Y-33020266I-20000J0D01*
G01*
D11*
%TO.C,D24*%
X139066368Y-29072823D02*
X138932542Y-28924194D01*
X139660884Y-28537518D02*
X139527058Y-28388889D01*
D12*
X139822412Y-29890282D02*
G75*
G03*
X139822412Y-29890282I-20000J0D01*
G01*
D11*
%TO.C,D30*%
X146673357Y-25415120D02*
X146652451Y-25216215D01*
X147468975Y-25331497D02*
X147448069Y-25132592D01*
D12*
X146808338Y-26509094D02*
G75*
G03*
X146808338Y-26509094I-20000J0D01*
G01*
D11*
%TO.C,D5*%
X143310805Y-51581196D02*
X143229458Y-51763905D01*
X142579968Y-51255807D02*
X142498621Y-51438516D01*
D12*
X143778215Y-50576296D02*
G75*
G03*
X143778215Y-50576296I-20000J0D01*
G01*
D11*
%TO.C,D7*%
X140798098Y-50227068D02*
X140680541Y-50388872D01*
X140150885Y-49756840D02*
X140033328Y-49918644D01*
D12*
X141464662Y-49337150D02*
G75*
G03*
X141464662Y-49337150I-20000J0D01*
G01*
D11*
%TO.C,D60*%
X150322069Y-52482592D02*
X150342975Y-52681497D01*
X149526451Y-52566215D02*
X149547357Y-52765120D01*
D12*
X150227088Y-51388618D02*
G75*
G03*
X150227088Y-51388618I-20000J0D01*
G01*
D11*
%TO.C,D42*%
X160804664Y-33031111D02*
X160987373Y-32949764D01*
X161130053Y-33761948D02*
X161312762Y-33680601D01*
D12*
X159819764Y-33478522D02*
G75*
G03*
X159819764Y-33478522I-20000J0D01*
G01*
D11*
%TO.C,D32*%
X149526451Y-25331497D02*
X149547357Y-25132592D01*
X150322069Y-25415120D02*
X150342975Y-25216215D01*
D12*
X149431471Y-26425471D02*
G75*
G03*
X149431471Y-26425471I-20001J0D01*
G01*
D11*
%TO.C,D59*%
X151727181Y-52217877D02*
X151768763Y-52413506D01*
X150944663Y-52384206D02*
X150986245Y-52579835D01*
D12*
X151518478Y-51141914D02*
G75*
G03*
X151518478Y-51141914I-20000J0D01*
G01*
D11*
%TO.C,D8*%
X139660884Y-49360194D02*
X139527058Y-49508823D01*
X139066368Y-48824889D02*
X138932542Y-48973518D01*
D12*
X140416928Y-48542734D02*
G75*
G03*
X140416928Y-48542734I-20000J0D01*
G01*
D13*
%TO.C,U2*%
X145887713Y-41708856D02*
X145887713Y-41233856D01*
X146362713Y-36488856D02*
X145887713Y-36488856D01*
X146362713Y-41708856D02*
X145887713Y-41708856D01*
X150632713Y-36488856D02*
X151107713Y-36488856D01*
X150632713Y-41708856D02*
X151107713Y-41708856D01*
X151107713Y-36488856D02*
X151107713Y-36963856D01*
X151107713Y-41708856D02*
X151107713Y-41233856D01*
D11*
%TO.C,D44*%
X161766734Y-35719388D02*
X161962363Y-35677806D01*
X161933063Y-36501906D02*
X162128692Y-36460324D01*
D12*
X160710771Y-35948091D02*
G75*
G03*
X160710771Y-35948091I-20000J0D01*
G01*
D11*
%TO.C,D1*%
X148897713Y-52598856D02*
X148897713Y-52798856D01*
X148097713Y-52598856D02*
X148097713Y-52798856D01*
D12*
X148917713Y-51498856D02*
G75*
G03*
X148917713Y-51498856I-20000J0D01*
G01*
D11*
%TO.C,D14*%
X135228692Y-42178324D02*
X135033063Y-42219906D01*
X135062363Y-41395806D02*
X134866734Y-41437388D01*
D12*
X136324655Y-41949621D02*
G75*
G03*
X136324655Y-41949621I-20000J0D01*
G01*
D11*
%TO.C,D37*%
X156197328Y-27670644D02*
X156314885Y-27508840D01*
X156844541Y-28140872D02*
X156962098Y-27979068D01*
D12*
X155570764Y-28560562D02*
G75*
G03*
X155570764Y-28560562I-20000J0D01*
G01*
D11*
%TO.C,D9*%
X138621680Y-48380201D02*
X138473051Y-48514027D01*
X138086375Y-47785685D02*
X137937746Y-47919511D01*
D12*
X139459139Y-47644157D02*
G75*
G03*
X139459139Y-47644157I-20000J0D01*
G01*
D11*
%TO.C,D27*%
X142579968Y-26641905D02*
X142498621Y-26459196D01*
X143310805Y-26316516D02*
X143229458Y-26133807D01*
D12*
X143047379Y-27646805D02*
G75*
G03*
X143047379Y-27646805I-20000J0D01*
G01*
D11*
%TO.C,D12*%
X136190762Y-44866601D02*
X136008053Y-44947948D01*
X135865373Y-44135764D02*
X135682664Y-44217111D01*
D12*
X137215662Y-44419190D02*
G75*
G03*
X137215662Y-44419190I-20000J0D01*
G01*
D11*
%TO.C,D52*%
X159775925Y-46648471D02*
X159937729Y-46766028D01*
X159305697Y-47295684D02*
X159467501Y-47413241D01*
D12*
X158906007Y-46001907D02*
G75*
G03*
X158906007Y-46001907I-20000J0D01*
G01*
D11*
%TO.C,D48*%
X161933063Y-41395806D02*
X162128692Y-41437388D01*
X161766734Y-42178324D02*
X161962363Y-42219906D01*
D12*
X160877101Y-41167103D02*
G75*
G03*
X160877101Y-41167103I-20000J0D01*
G01*
D11*
%TO.C,D15*%
X134963977Y-40773212D02*
X134765072Y-40794118D01*
X134880354Y-39977594D02*
X134681449Y-39998500D01*
D12*
X136077951Y-40658231D02*
G75*
G03*
X136077951Y-40658231I-20000J0D01*
G01*
D11*
%TO.C,D33*%
X150944663Y-25513506D02*
X150986245Y-25317877D01*
X151727181Y-25679835D02*
X151768763Y-25484206D01*
D12*
X150735960Y-26589468D02*
G75*
G03*
X150735960Y-26589468I-20000J0D01*
G01*
D11*
%TO.C,D16*%
X134847713Y-39348856D02*
X134647713Y-39348856D01*
X134847713Y-38548856D02*
X134647713Y-38548856D01*
D12*
X135967713Y-39348856D02*
G75*
G03*
X135967713Y-39348856I-20000J0D01*
G01*
D11*
%TO.C,D51*%
X160519110Y-45427446D02*
X160692316Y-45527446D01*
X160119110Y-46120266D02*
X160292316Y-46220266D01*
D12*
X159586483Y-44877446D02*
G75*
G03*
X159586483Y-44877446I-20000J0D01*
G01*
D11*
%TO.C,D38*%
X157334542Y-28537518D02*
X157468368Y-28388889D01*
X157929058Y-29072823D02*
X158062884Y-28924194D01*
D12*
X156618498Y-29354978D02*
G75*
G03*
X156618498Y-29354978I-20000J0D01*
G01*
D11*
%TO.C,D10*%
X137689729Y-47295684D02*
X137527925Y-47413241D01*
X137219501Y-46648471D02*
X137057697Y-46766028D01*
D12*
X138599647Y-46649120D02*
G75*
G03*
X138599647Y-46649120I-20000J0D01*
G01*
D11*
%TO.C,D25*%
X140150885Y-28140872D02*
X140033328Y-27979068D01*
X140798098Y-27670644D02*
X140680541Y-27508840D01*
D12*
X140817449Y-29030790D02*
G75*
G03*
X140817449Y-29030790I-20000J0D01*
G01*
D11*
%TO.C,D11*%
X136876316Y-46120266D02*
X136703110Y-46220266D01*
X136476316Y-45427446D02*
X136303110Y-45527446D01*
D12*
X137848943Y-45570266D02*
G75*
G03*
X137848943Y-45570266I-20000J0D01*
G01*
D11*
%TO.C,D35*%
X153684621Y-26316516D02*
X153765968Y-26133807D01*
X154415458Y-26641905D02*
X154496805Y-26459196D01*
D12*
X153257211Y-27321416D02*
G75*
G03*
X153257211Y-27321416I-20000J0D01*
G01*
D11*
%TO.C,D13*%
X135639425Y-43547377D02*
X135449214Y-43609180D01*
X135392212Y-42786532D02*
X135202001Y-42848335D01*
D12*
X136705589Y-43207458D02*
G75*
G03*
X136705589Y-43207458I-20001J0D01*
G01*
D11*
%TO.C,D47*%
X162115072Y-39977594D02*
X162313977Y-39998500D01*
X162031449Y-40773212D02*
X162230354Y-40794118D01*
D12*
X161041099Y-39862613D02*
G75*
G03*
X161041099Y-39862613I-20001J0D01*
G01*
D11*
%TO.C,D31*%
X148097713Y-25298856D02*
X148097713Y-25098856D01*
X148897713Y-25298856D02*
X148897713Y-25098856D01*
D12*
X148117713Y-26398856D02*
G75*
G03*
X148117713Y-26398856I-20000J0D01*
G01*
D11*
%TO.C,D19*%
X135392212Y-35111180D02*
X135202001Y-35049377D01*
X135639425Y-34350335D02*
X135449214Y-34288532D01*
D12*
X136458374Y-35451099D02*
G75*
G03*
X136458374Y-35451099I-20000J0D01*
G01*
D11*
%TO.C,D29*%
X145268245Y-25679835D02*
X145226663Y-25484206D01*
X146050763Y-25513506D02*
X146009181Y-25317877D01*
D12*
X145516948Y-26755798D02*
G75*
G03*
X145516948Y-26755798I-20000J0D01*
G01*
D11*
%TO.C,D45*%
X162031449Y-37124500D02*
X162230354Y-37103594D01*
X162115072Y-37920118D02*
X162313977Y-37899212D01*
D12*
X160957475Y-37239481D02*
G75*
G03*
X160957475Y-37239481I-20000J0D01*
G01*
D11*
%TO.C,D17*%
X134880354Y-37920118D02*
X134681449Y-37899212D01*
X134963977Y-37124500D02*
X134765072Y-37103594D01*
D12*
X135994329Y-38035099D02*
G75*
G03*
X135994329Y-38035099I-20001J0D01*
G01*
D11*
%TO.C,D46*%
X162147713Y-38548856D02*
X162347713Y-38548856D01*
X162147713Y-39348856D02*
X162347713Y-39348856D01*
D12*
X161067713Y-38548856D02*
G75*
G03*
X161067713Y-38548856I-20000J0D01*
G01*
D11*
%TO.C,D50*%
X161130053Y-44135764D02*
X161312762Y-44217111D01*
X160804664Y-44866601D02*
X160987373Y-44947948D01*
D12*
X160145153Y-43688354D02*
G75*
G03*
X160145153Y-43688354I-20000J0D01*
G01*
D11*
%TO.C,D34*%
X152335389Y-25843355D02*
X152397192Y-25653144D01*
X153096234Y-26090568D02*
X153158037Y-25900357D01*
D12*
X152015470Y-26889517D02*
G75*
G03*
X152015470Y-26889517I-20000J0D01*
G01*
D11*
%TO.C,D28*%
X143899192Y-26090568D02*
X143837389Y-25900357D01*
X144660037Y-25843355D02*
X144598234Y-25653144D01*
D12*
X144259112Y-27136731D02*
G75*
G03*
X144259112Y-27136731I-20001J0D01*
G01*
D11*
%TO.C,D2*%
X147468975Y-52566215D02*
X147448069Y-52765120D01*
X146673357Y-52482592D02*
X146652451Y-52681497D01*
D12*
X147603957Y-51472241D02*
G75*
G03*
X147603957Y-51472241I-20001J0D01*
G01*
D11*
%TO.C,D43*%
X161356001Y-34350335D02*
X161546212Y-34288532D01*
X161603214Y-35111180D02*
X161793425Y-35049377D01*
D12*
X160329839Y-34690254D02*
G75*
G03*
X160329839Y-34690254I-20001J0D01*
G01*
D11*
%TO.C,D54*%
X157929058Y-48824889D02*
X158062884Y-48973518D01*
X157334542Y-49360194D02*
X157468368Y-49508823D01*
D12*
X157213014Y-48007430D02*
G75*
G03*
X157213014Y-48007430I-20000J0D01*
G01*
D11*
%TO.C,D20*%
X135865373Y-33761948D02*
X135682664Y-33680601D01*
X136190762Y-33031111D02*
X136008053Y-32949764D01*
D12*
X136890273Y-34209358D02*
G75*
G03*
X136890273Y-34209358I-20000J0D01*
G01*
D11*
%TO.C,D41*%
X160119110Y-31777446D02*
X160292316Y-31677446D01*
X160519110Y-32470266D02*
X160692316Y-32370266D01*
D12*
X159186483Y-32327446D02*
G75*
G03*
X159186483Y-32327446I-20000J0D01*
G01*
D11*
%TO.C,D22*%
X137219501Y-31249241D02*
X137057697Y-31131684D01*
X137689729Y-30602028D02*
X137527925Y-30484471D01*
D12*
X138129419Y-31895805D02*
G75*
G03*
X138129419Y-31895805I-20000J0D01*
G01*
D11*
%TO.C,D6*%
X142019123Y-50970253D02*
X141919123Y-51143459D01*
X141326303Y-50570253D02*
X141226303Y-50743459D01*
D12*
X142589123Y-50017626D02*
G75*
G03*
X142589123Y-50017626I-20000J0D01*
G01*
D11*
%TO.C,D23*%
X138086375Y-30112027D02*
X137937746Y-29978201D01*
X138621680Y-29517511D02*
X138473051Y-29383685D01*
D12*
X138923835Y-30848071D02*
G75*
G03*
X138923835Y-30848071I-20000J0D01*
G01*
D11*
%TO.C,D55*%
X156844541Y-49756840D02*
X156962098Y-49918644D01*
X156197328Y-50227068D02*
X156314885Y-50388872D01*
D12*
X156217977Y-48866922D02*
G75*
G03*
X156217977Y-48866922I-20000J0D01*
G01*
D11*
%TO.C,D39*%
X158373746Y-29517511D02*
X158522375Y-29383685D01*
X158909051Y-30112027D02*
X159057680Y-29978201D01*
D12*
X157576287Y-30253555D02*
G75*
G03*
X157576287Y-30253555I-20000J0D01*
G01*
D11*
%TO.C,D26*%
X141326303Y-27327459D02*
X141226303Y-27154253D01*
X142019123Y-26927459D02*
X141919123Y-26754253D01*
D12*
X141896303Y-28280086D02*
G75*
G03*
X141896303Y-28280086I-20000J0D01*
G01*
%TD*%
M02*
